<svg xmlns="http://www.w3.org/2000/svg" xmlns:xlink="http://www.w3.org/1999/xlink" width="150" zoomAndPan="magnify" viewBox="0 0 112.5 112.499997" height="150" preserveAspectRatio="xMidYMid meet" version="1.0"><defs><clipPath id="545b429a10"><path d="M 0 0 L 112.003906 0 L 112.003906 112.003906 L 0 112.003906 Z M 0 0 " clip-rule="nonzero"/></clipPath><clipPath id="4bcc9f7d8d"><path d="M 0 0 L 112.003906 0 L 112.003906 112.003906 L 0 112.003906 Z M 0 0 " clip-rule="nonzero"/></clipPath><clipPath id="3c74ca2744"><path d="M 56 0 C 25.074219 0 0 25.074219 0 56 C 0 86.929688 25.074219 112.003906 56 112.003906 C 86.929688 112.003906 112.003906 86.929688 112.003906 56 C 112.003906 25.074219 86.929688 0 56 0 Z M 56 0 " clip-rule="nonzero"/></clipPath></defs><g clip-path="url(#545b429a10)"><path fill="#ffffff" d="M 0 0 L 112.003906 0 L 112.003906 112.003906 L 0 112.003906 Z M 0 0 " fill-opacity="1" fill-rule="nonzero"/></g><g clip-path="url(#4bcc9f7d8d)"><g clip-path="url(#3c74ca2744)"><path fill="#0a3641" d="M 0 0 L 112.003906 0 L 112.003906 112.003906 L 0 112.003906 Z M 0 0 " fill-opacity="1" fill-rule="nonzero"/></g></g><path stroke-linecap="butt" transform="matrix(0.746681, 0, 0, 0.746681, 30.884387, 85.252039)" fill="none" stroke-linejoin="miter" d="M -0.00210883 2.000927 L 25.161319 2.000927 " stroke="#ffffff" stroke-width="4" stroke-opacity="1" stroke-miterlimit="4"/><path stroke-linecap="butt" transform="matrix(0, -0.746681, 0.746681, 0, 46.682896, 86.74387)" fill="none" stroke-linejoin="miter" d="M 0.00225322 1.999361 L 25.160449 1.999361 " stroke="#ffffff" stroke-width="4" stroke-opacity="1" stroke-miterlimit="4"/><path stroke-linecap="butt" transform="matrix(0.746681, 0, 0, 0.746681, 46.684427, 66.465273)" fill="none" stroke-linejoin="miter" d="M -0.00111615 1.997851 L 25.162311 1.997851 " stroke="#ffffff" stroke-width="4" stroke-opacity="1" stroke-miterlimit="4"/><path stroke-linecap="butt" transform="matrix(0, 0.746681, -0.746681, 0, 65.469666, 67.960167)" fill="none" stroke-linejoin="miter" d="M 0.0010317 1.999653 L 25.159228 1.999653 " stroke="#ffffff" stroke-width="4" stroke-opacity="1" stroke-miterlimit="4"/><path stroke-linecap="butt" transform="matrix(-0.746681, 0, 0, -0.746681, 81.268166, 88.238764)" fill="none" stroke-linejoin="miter" d="M -0.00182885 1.999073 L 25.161599 1.999073 " stroke="#ffffff" stroke-width="4" stroke-opacity="1" stroke-miterlimit="4"/><path stroke-linecap="butt" transform="matrix(0, -0.746681, 0.746681, 0, 78.28301, 86.758928)" fill="none" stroke-linejoin="miter" d="M 0.00149369 2.0013 L 58.002933 2.0013 " stroke="#ffffff" stroke-width="4" stroke-opacity="1" stroke-miterlimit="4"/><path stroke-linecap="butt" transform="matrix(0, -0.746681, 0.746681, 0, 30.882892, 88.265817)" fill="none" stroke-linejoin="miter" d="M 0.0002569 1.998319 L 58.001696 1.998319 " stroke="#ffffff" stroke-width="4" stroke-opacity="1" stroke-miterlimit="4"/><path stroke-linecap="butt" transform="matrix(0.746681, -0.000200463, 0.000200463, 0.746681, 30.88399, 41.970074)" fill="none" stroke-linejoin="miter" d="M -0.00211412 2.001884 L 67.478775 1.999075 " stroke="#ffffff" stroke-width="4" stroke-opacity="1" stroke-miterlimit="4"/><path stroke-linecap="butt" transform="matrix(0.469609, -0.580518, 0.580518, 0.469609, 30.730023, 42.79005)" fill="none" stroke-linejoin="miter" d="M -0.00161573 2.000561 L 53.083425 2.001391 " stroke="#ffffff" stroke-width="4" stroke-opacity="1" stroke-miterlimit="4"/><path stroke-linecap="butt" transform="matrix(0.464585, 0.584546, -0.584546, 0.464585, 56.572763, 11.990431)" fill="none" stroke-linejoin="miter" d="M -0.00281879 2.000032 L 53.155242 2.001976 " stroke="#ffffff" stroke-width="4" stroke-opacity="1" stroke-miterlimit="4"/></svg>