<svg xmlns="http://www.w3.org/2000/svg" xmlns:xlink="http://www.w3.org/1999/xlink" width="50" zoomAndPan="magnify" viewBox="0 0 37.5 37.499999" height="50" preserveAspectRatio="xMidYMid meet" version="1.0"><defs><clipPath id="55e64b56d3"><path d="M 0 0 L 36.84375 0 L 36.84375 36.84375 L 0 36.84375 Z M 0 0 " clip-rule="nonzero"/></clipPath><clipPath id="cdfc797a98"><path d="M 18.421875 0 C 8.246094 0 0 8.246094 0 18.421875 C 0 28.597656 8.246094 36.84375 18.421875 36.84375 C 28.597656 36.84375 36.84375 28.597656 36.84375 18.421875 C 36.84375 8.246094 28.597656 0 18.421875 0 Z M 18.421875 0 " clip-rule="nonzero"/></clipPath><clipPath id="0e2700a199"><path d="M 5.734375 6.101562 L 30.898438 6.101562 L 30.898438 30.523438 L 5.734375 30.523438 Z M 5.734375 6.101562 " clip-rule="nonzero"/></clipPath></defs><g clip-path="url(#55e64b56d3)"><g clip-path="url(#cdfc797a98)"><path fill="#0a3641" d="M 0 0 L 36.84375 0 L 36.84375 36.84375 L 0 36.84375 Z M 0 0 " fill-opacity="1" fill-rule="nonzero"/></g></g><g clip-path="url(#0e2700a199)"><path fill="#ffffff" d="M 30.992188 25.269531 L 29.519531 10.574219 C 29.265625 8.023438 27.136719 6.101562 24.574219 6.101562 L 12.324219 6.101562 C 9.761719 6.101562 7.632812 8.023438 7.378906 10.574219 L 5.902344 25.269531 C 5.761719 26.660156 6.226562 28.0625 7.164062 29.097656 C 8.097656 30.132812 9.445312 30.734375 10.851562 30.734375 L 26.039062 30.734375 C 27.441406 30.734375 28.785156 30.132812 29.730469 29.097656 C 30.671875 28.0625 31.128906 26.660156 30.988281 25.269531 Z M 28.734375 28.195312 C 28.046875 28.957031 27.070312 29.386719 26.046875 29.386719 L 10.855469 29.386719 C 9.835938 29.386719 8.859375 28.949219 8.171875 28.195312 C 7.484375 27.433594 7.148438 26.417969 7.25 25.402344 L 8.722656 10.710938 C 8.914062 8.851562 10.460938 7.445312 12.332031 7.445312 L 24.578125 7.445312 C 26.449219 7.445312 28 8.847656 28.1875 10.710938 L 29.660156 25.402344 C 29.761719 26.417969 29.425781 27.433594 28.738281 28.195312 Z M 24.109375 10.925781 L 24.109375 12.128906 C 24.109375 15.019531 21.570312 17.359375 18.449219 17.359375 C 15.324219 17.359375 12.789062 15.011719 12.789062 12.128906 L 12.789062 10.925781 C 12.789062 10.554688 13.089844 10.253906 13.460938 10.253906 C 13.832031 10.253906 14.136719 10.554688 14.136719 10.925781 L 14.136719 12.128906 C 14.136719 14.269531 16.074219 16.015625 18.449219 16.015625 C 20.824219 16.015625 22.761719 14.269531 22.761719 12.128906 L 22.761719 10.925781 C 22.761719 10.554688 23.066406 10.253906 23.4375 10.253906 C 23.804688 10.253906 24.109375 10.554688 24.109375 10.925781 Z M 24.109375 10.925781 " fill-opacity="1" fill-rule="nonzero"/></g></svg>