<svg xmlns="http://www.w3.org/2000/svg" xmlns:xlink="http://www.w3.org/1999/xlink" width="50" zoomAndPan="magnify" viewBox="0 0 37.5 37.499999" height="50" preserveAspectRatio="xMidYMid meet" version="1.0"><defs><clipPath id="9419c654a1"><path d="M 0 0 L 36.84375 0 L 36.84375 36.84375 L 0 36.84375 Z M 0 0 " clip-rule="nonzero"/></clipPath><clipPath id="eecb2420ff"><path d="M 18.421875 0 C 8.246094 0 0 8.246094 0 18.421875 C 0 28.597656 8.246094 36.84375 18.421875 36.84375 C 28.597656 36.84375 36.84375 28.597656 36.84375 18.421875 C 36.84375 8.246094 28.597656 0 18.421875 0 Z M 18.421875 0 " clip-rule="nonzero"/></clipPath><clipPath id="58ab7d4f81"><path d="M 6 5.949219 L 31 5.949219 L 31 31 L 6 31 Z M 6 5.949219 " clip-rule="nonzero"/></clipPath></defs><g clip-path="url(#9419c654a1)"><g clip-path="url(#eecb2420ff)"><path fill="#0a3641" d="M 0 0 L 36.84375 0 L 36.84375 36.84375 L 0 36.84375 Z M 0 0 " fill-opacity="1" fill-rule="nonzero"/></g></g><g clip-path="url(#58ab7d4f81)"><path fill="#ffffff" d="M 16.054688 5.996094 C 10.449219 6.058594 5.957031 10.652344 6.019531 16.257812 C 6.078125 21.859375 10.671875 26.355469 16.277344 26.292969 C 18.347656 26.269531 20.363281 25.617188 22.050781 24.414062 L 27.847656 30.210938 C 28.511719 30.867188 29.582031 30.859375 30.234375 30.195312 C 30.882812 29.539062 30.882812 28.480469 30.234375 27.824219 L 24.4375 22.027344 C 27.6875 17.460938 26.617188 11.121094 22.050781 7.875 C 20.300781 6.628906 18.203125 5.972656 16.054688 5.996094 Z M 15.933594 7.753906 C 20.5625 7.625 24.417969 11.269531 24.550781 15.898438 C 24.550781 15.980469 24.550781 16.0625 24.550781 16.144531 C 24.554688 20.773438 20.800781 24.53125 16.171875 24.53125 C 11.539062 24.535156 7.785156 20.78125 7.78125 16.152344 C 7.78125 16.148438 7.78125 16.148438 7.78125 16.144531 C 7.777344 11.601562 11.390625 7.878906 15.933594 7.753906 Z M 15.933594 7.753906 " fill-opacity="1" fill-rule="nonzero"/></g><path fill="#ffffff" d="M 13.902344 9.925781 C 14.363281 9.761719 14.867188 10 15.03125 10.457031 C 15.195312 10.914062 14.960938 11.417969 14.507812 11.585938 C 12.589844 12.28125 11.316406 14.105469 11.316406 16.144531 C 11.316406 16.632812 10.917969 17.027344 10.433594 17.027344 C 9.945312 17.027344 9.550781 16.632812 9.550781 16.144531 C 9.550781 13.363281 11.289062 10.878906 13.902344 9.925781 Z M 13.902344 9.925781 " fill-opacity="1" fill-rule="nonzero"/></svg>