<svg xmlns="http://www.w3.org/2000/svg" xmlns:xlink="http://www.w3.org/1999/xlink" width="50" zoomAndPan="magnify" viewBox="0 0 37.5 37.499999" height="50" preserveAspectRatio="xMidYMid meet" version="1.0"><defs><clipPath id="a9c2721136"><path d="M 0 0 L 36.84375 0 L 36.84375 36.84375 L 0 36.84375 Z M 0 0 " clip-rule="nonzero"/></clipPath><clipPath id="20d275c4fe"><path d="M 18.421875 0 C 8.246094 0 0 8.246094 0 18.421875 C 0 28.597656 8.246094 36.84375 18.421875 36.84375 C 28.597656 36.84375 36.84375 28.597656 36.84375 18.421875 C 36.84375 8.246094 28.597656 0 18.421875 0 Z M 18.421875 0 " clip-rule="nonzero"/></clipPath></defs><g clip-path="url(#a9c2721136)"><g clip-path="url(#20d275c4fe)"><path fill="#ffffff" d="M 0 0 L 36.84375 0 L 36.84375 36.84375 L 0 36.84375 Z M 0 0 " fill-opacity="1" fill-rule="nonzero"/></g></g><path stroke-linecap="butt" transform="matrix(0.740132, 0, 0, 0.740132, 10.159864, 28.166085)" fill="none" stroke-linejoin="miter" d="M 0.000394662 0.498657 L 8.34984 0.498657 " stroke="#0a3641" stroke-width="1" stroke-opacity="1" stroke-miterlimit="4"/><path stroke-linecap="butt" transform="matrix(0, -0.740132, 0.740132, 0, 15.47636, 28.533798)" fill="none" stroke-linejoin="miter" d="M -0.00183522 0.501662 L 8.34761 0.501662 " stroke="#0a3641" stroke-width="1" stroke-opacity="1" stroke-miterlimit="4"/><path stroke-linecap="butt" transform="matrix(0.740132, 0, 0, 0.740132, 15.357515, 21.985907)" fill="none" stroke-linejoin="miter" d="M 0.00251352 0.499319 L 8.351959 0.499319 " stroke="#0a3641" stroke-width="1" stroke-opacity="1" stroke-miterlimit="4"/><path stroke-linecap="butt" transform="matrix(0, 0.740132, -0.740132, 0, 21.414143, 22.358325)" fill="none" stroke-linejoin="miter" d="M 0.00141806 0.501498 L 8.350863 0.501498 " stroke="#0a3641" stroke-width="1" stroke-opacity="1" stroke-miterlimit="4"/><path stroke-linecap="butt" transform="matrix(-0.740132, 0, 0, -0.740132, 26.73064, 28.906216)" fill="none" stroke-linejoin="miter" d="M 0.000231754 0.501343 L 8.349677 0.501343 " stroke="#0a3641" stroke-width="1" stroke-opacity="1" stroke-miterlimit="4"/><path stroke-linecap="butt" transform="matrix(0, -0.740132, 0.740132, 0, 25.873971, 28.541047)" fill="none" stroke-linejoin="miter" d="M -0.0025959 0.497502 L 19.250739 0.497502 " stroke="#0a3641" stroke-width="1" stroke-opacity="1" stroke-miterlimit="4"/><path stroke-linecap="butt" transform="matrix(0, -0.740132, 0.740132, 0, 10.281019, 29.036762)" fill="none" stroke-linejoin="miter" d="M 0.0021695 0.501701 L 19.250226 0.501701 " stroke="#0a3641" stroke-width="1" stroke-opacity="1" stroke-miterlimit="4"/><path stroke-linecap="butt" transform="matrix(0.740131, -0.000198704, 0.000198704, 0.740131, 10.159766, 13.92786)" fill="none" stroke-linejoin="miter" d="M 0.000393608 0.498581 L 22.394007 0.499315 " stroke="#0a3641" stroke-width="1" stroke-opacity="1" stroke-miterlimit="4"/><path stroke-linecap="butt" transform="matrix(0.465489, -0.575425, 0.575425, 0.465489, 10.202493, 14.150913)" fill="none" stroke-linejoin="miter" d="M -0.000747821 0.49726 L 17.617883 0.500454 " stroke="#0a3641" stroke-width="1" stroke-opacity="1" stroke-miterlimit="4"/><path stroke-linecap="butt" transform="matrix(0.46051, 0.579418, -0.579418, 0.46051, 18.516181, 4.018517)" fill="none" stroke-linejoin="miter" d="M 0.00137492 0.500937 L 17.640413 0.497402 " stroke="#0a3641" stroke-width="1" stroke-opacity="1" stroke-miterlimit="4"/></svg>