<svg xmlns="http://www.w3.org/2000/svg" xmlns:xlink="http://www.w3.org/1999/xlink" width="50" zoomAndPan="magnify" viewBox="0 0 37.5 37.499999" height="50" preserveAspectRatio="xMidYMid meet" version="1.0"><defs><clipPath id="622efb87b6"><path d="M 0 0 L 36.84375 0 L 36.84375 36.84375 L 0 36.84375 Z M 0 0 " clip-rule="nonzero"/></clipPath><clipPath id="d354e33f77"><path d="M 18.421875 0 C 8.246094 0 0 8.246094 0 18.421875 C 0 28.597656 8.246094 36.84375 18.421875 36.84375 C 28.597656 36.84375 36.84375 28.597656 36.84375 18.421875 C 36.84375 8.246094 28.597656 0 18.421875 0 Z M 18.421875 0 " clip-rule="nonzero"/></clipPath><clipPath id="de9611f728"><path d="M 8.046875 8.046875 L 29.507812 8.046875 L 29.507812 29.507812 L 8.046875 29.507812 Z M 8.046875 8.046875 " clip-rule="nonzero"/></clipPath></defs><g clip-path="url(#622efb87b6)"><g clip-path="url(#d354e33f77)"><path fill="#ffffff" d="M 0 0 L 36.84375 0 L 36.84375 36.84375 L 0 36.84375 Z M 0 0 " fill-opacity="1" fill-rule="nonzero"/></g></g><g clip-path="url(#de9611f728)"><path fill="#0a3641" d="M 26.445312 29.660156 L 11.257812 29.660156 C 9.488281 29.660156 8.046875 28.21875 8.046875 26.445312 L 8.046875 11.257812 C 8.046875 9.488281 9.488281 8.046875 11.257812 8.046875 L 26.445312 8.046875 C 28.21875 8.046875 29.660156 9.488281 29.660156 11.257812 L 29.660156 26.445312 C 29.660156 28.21875 28.21875 29.660156 26.445312 29.660156 Z M 11.257812 9.214844 C 10.128906 9.214844 9.214844 10.128906 9.214844 11.257812 L 9.214844 26.445312 C 9.214844 27.574219 10.128906 28.492188 11.257812 28.492188 L 26.445312 28.492188 C 27.574219 28.492188 28.492188 27.574219 28.492188 26.445312 L 28.492188 11.257812 C 28.492188 10.128906 27.574219 9.214844 26.445312 9.214844 Z M 11.257812 9.214844 " fill-opacity="1" fill-rule="nonzero"/></g><path fill="#0a3641" d="M 18.851562 24.984375 C 15.46875 24.984375 12.71875 22.234375 12.71875 18.851562 C 12.71875 15.46875 15.46875 12.71875 18.851562 12.71875 C 22.234375 12.71875 24.984375 15.46875 24.984375 18.851562 C 24.984375 22.234375 22.234375 24.984375 18.851562 24.984375 Z M 18.851562 13.886719 C 16.113281 13.886719 13.886719 16.113281 13.886719 18.851562 C 13.886719 21.589844 16.113281 23.816406 18.851562 23.816406 C 21.589844 23.816406 23.816406 21.589844 23.816406 18.851562 C 23.816406 16.113281 21.589844 13.886719 18.851562 13.886719 Z M 18.851562 13.886719 " fill-opacity="1" fill-rule="nonzero"/><path fill="#0a3641" d="M 25.277344 14.472656 C 24.152344 14.472656 23.234375 13.554688 23.234375 12.425781 C 23.234375 11.300781 24.152344 10.382812 25.277344 10.382812 C 26.40625 10.382812 27.324219 11.300781 27.324219 12.425781 C 27.324219 13.554688 26.40625 14.472656 25.277344 14.472656 Z M 25.277344 11.550781 C 24.796875 11.550781 24.402344 11.941406 24.402344 12.425781 C 24.402344 12.910156 24.796875 13.300781 25.277344 13.300781 C 25.761719 13.300781 26.15625 12.910156 26.15625 12.425781 C 26.15625 11.941406 25.761719 11.550781 25.277344 11.550781 Z M 25.277344 11.550781 " fill-opacity="1" fill-rule="nonzero"/></svg>