<svg xmlns="http://www.w3.org/2000/svg" xmlns:xlink="http://www.w3.org/1999/xlink" width="50" zoomAndPan="magnify" viewBox="0 0 37.5 37.499999" height="50" preserveAspectRatio="xMidYMid meet" version="1.0"><defs><clipPath id="c19bd8efff"><path d="M 0 0 L 37.007812 0 L 37.007812 37.007812 L 0 37.007812 Z M 0 0 " clip-rule="nonzero"/></clipPath><clipPath id="82a19db351"><path d="M 0 0 L 36.84375 0 L 36.84375 36.84375 L 0 36.84375 Z M 0 0 " clip-rule="nonzero"/></clipPath><clipPath id="6ba946128a"><path d="M 18.421875 0 C 8.246094 0 0 8.246094 0 18.421875 C 0 28.597656 8.246094 36.84375 18.421875 36.84375 C 28.597656 36.84375 36.84375 28.597656 36.84375 18.421875 C 36.84375 8.246094 28.597656 0 18.421875 0 Z M 18.421875 0 " clip-rule="nonzero"/></clipPath></defs><g clip-path="url(#c19bd8efff)"><path fill="#ffffff" d="M 0 0 L 37.007812 0 L 37.007812 37.007812 L 0 37.007812 Z M 0 0 " fill-opacity="1" fill-rule="nonzero"/></g><g clip-path="url(#82a19db351)"><g clip-path="url(#6ba946128a)"><path fill="#0a3641" d="M 0 0 L 36.84375 0 L 36.84375 36.84375 L 0 36.84375 Z M 0 0 " fill-opacity="1" fill-rule="nonzero"/></g></g><path stroke-linecap="butt" transform="matrix(0.245632, 0, 0, 0.245632, 10.159864, 28.044888)" fill="none" stroke-linejoin="miter" d="M 0.00118919 1.995949 L 25.159546 1.995949 " stroke="#ffffff" stroke-width="4" stroke-opacity="1" stroke-miterlimit="4"/><path stroke-linecap="butt" transform="matrix(0, -0.245632, 0.245632, 0, 15.357012, 28.535646)" fill="none" stroke-linejoin="miter" d="M 0.00199586 1.997479 L 25.160353 1.997479 " stroke="#ffffff" stroke-width="4" stroke-opacity="1" stroke-miterlimit="4"/><path stroke-linecap="butt" transform="matrix(0.245632, 0, 0, 0.245632, 15.357515, 21.864711)" fill="none" stroke-linejoin="miter" d="M 0.0075737 1.997944 L 25.165931 1.997944 " stroke="#ffffff" stroke-width="4" stroke-opacity="1" stroke-miterlimit="4"/><path stroke-linecap="butt" transform="matrix(0, 0.245632, -0.245632, 0, 21.53719, 22.356477)" fill="none" stroke-linejoin="miter" d="M -0.00410429 1.99614 L 25.154253 1.99614 " stroke="#ffffff" stroke-width="4" stroke-opacity="1" stroke-miterlimit="4"/><path stroke-linecap="butt" transform="matrix(-0.245632, 0, 0, -0.245632, 26.734335, 29.027415)" fill="none" stroke-linejoin="miter" d="M -0.000160855 2.004052 L 25.158196 2.004052 " stroke="#ffffff" stroke-width="4" stroke-opacity="1" stroke-miterlimit="4"/><path stroke-linecap="butt" transform="matrix(0, -0.245632, 0.245632, 0, 25.752326, 28.540603)" fill="none" stroke-linejoin="miter" d="M 0.00627115 1.994294 L 58.004076 1.994294 " stroke="#ffffff" stroke-width="4" stroke-opacity="1" stroke-miterlimit="4"/><path stroke-linecap="butt" transform="matrix(0, -0.245632, 0.245632, 0, 10.159373, 29.036314)" fill="none" stroke-linejoin="miter" d="M 0.00471278 2.006953 L 58.002518 2.006953 " stroke="#ffffff" stroke-width="4" stroke-opacity="1" stroke-miterlimit="4"/><path stroke-linecap="butt" transform="matrix(0.245632, -0.0000659452, 0.0000659452, 0.245632, 10.159733, 13.806661)" fill="none" stroke-linejoin="miter" d="M 0.0011866 1.995728 L 67.477108 1.99794 " stroke="#ffffff" stroke-width="4" stroke-opacity="1" stroke-miterlimit="4"/><path stroke-linecap="butt" transform="matrix(0.154485, -0.19097, 0.19097, 0.154485, 10.109085, 14.076405)" fill="none" stroke-linejoin="miter" d="M -0.00127859 2.007126 L 53.076774 2.004384 " stroke="#ffffff" stroke-width="4" stroke-opacity="1" stroke-miterlimit="4"/><path stroke-linecap="butt" transform="matrix(0.152832, 0.192295, -0.192295, 0.152832, 18.610427, 3.944425)" fill="none" stroke-linejoin="miter" d="M 0.00155136 1.997463 L 53.163547 1.996706 " stroke="#ffffff" stroke-width="4" stroke-opacity="1" stroke-miterlimit="4"/></svg>