<svg xmlns="http://www.w3.org/2000/svg" xmlns:xlink="http://www.w3.org/1999/xlink" width="50" zoomAndPan="magnify" viewBox="0 0 37.5 37.499999" height="50" preserveAspectRatio="xMidYMid meet" version="1.0"><defs><clipPath id="c6244d7338"><path d="M 0 0 L 36.84375 0 L 36.84375 36.84375 L 0 36.84375 Z M 0 0 " clip-rule="nonzero"/></clipPath><clipPath id="dcbd05f6c8"><path d="M 18.421875 0 C 8.246094 0 0 8.246094 0 18.421875 C 0 28.597656 8.246094 36.84375 18.421875 36.84375 C 28.597656 36.84375 36.84375 28.597656 36.84375 18.421875 C 36.84375 8.246094 28.597656 0 18.421875 0 Z M 18.421875 0 " clip-rule="nonzero"/></clipPath><clipPath id="5df30c53aa"><path d="M 12.042969 5.792969 L 24.625 5.792969 L 24.625 30.957031 L 12.042969 30.957031 Z M 12.042969 5.792969 " clip-rule="nonzero"/></clipPath><clipPath id="223ed98bd1"><path d="M 20.09375 31.050781 L 15.117188 31.050781 L 15.117188 18.253906 L 12.042969 18.253906 L 12.042969 14.035156 L 15.117188 14.035156 L 15.117188 12.679688 C 15.117188 10.414062 15.640625 8.699219 16.679688 7.539062 C 17.734375 6.378906 19.425781 5.796875 21.757812 5.796875 C 22.183594 5.796875 22.699219 5.824219 23.304688 5.878906 C 23.917969 5.925781 24.417969 5.976562 24.796875 6.03125 L 24.796875 10.199219 C 24.621094 10.179688 24.351562 10.15625 23.992188 10.132812 C 23.644531 10.101562 23.375 10.082031 23.183594 10.082031 C 22.085938 10.082031 21.296875 10.308594 20.816406 10.753906 C 20.332031 11.199219 20.09375 11.96875 20.09375 13.066406 L 20.09375 14.035156 L 24.699219 14.035156 L 24.144531 18.253906 L 20.09375 18.253906 Z M 20.09375 31.050781 " clip-rule="nonzero"/></clipPath></defs><g clip-path="url(#c6244d7338)"><g clip-path="url(#dcbd05f6c8)"><path fill="#ffffff" d="M 0 0 L 36.84375 0 L 36.84375 36.84375 L 0 36.84375 Z M 0 0 " fill-opacity="1" fill-rule="nonzero"/></g></g><g clip-path="url(#5df30c53aa)"><g clip-path="url(#223ed98bd1)"><path fill="#0a3641" d="M 12.042969 5.796875 L 12.042969 30.957031 L 24.625 30.957031 L 24.625 5.796875 Z M 12.042969 5.796875 " fill-opacity="1" fill-rule="nonzero"/></g></g></svg>