<svg xmlns="http://www.w3.org/2000/svg" xmlns:xlink="http://www.w3.org/1999/xlink" width="50" zoomAndPan="magnify" viewBox="0 0 37.5 37.499999" height="50" preserveAspectRatio="xMidYMid meet" version="1.0"><defs><clipPath id="8940d9d5f2"><path d="M 0 0 L 36.84375 0 L 36.84375 36.84375 L 0 36.84375 Z M 0 0 " clip-rule="nonzero"/></clipPath><clipPath id="2a7be1acf1"><path d="M 18.421875 0 C 8.246094 0 0 8.246094 0 18.421875 C 0 28.597656 8.246094 36.84375 18.421875 36.84375 C 28.597656 36.84375 36.84375 28.597656 36.84375 18.421875 C 36.84375 8.246094 28.597656 0 18.421875 0 Z M 18.421875 0 " clip-rule="nonzero"/></clipPath><clipPath id="10b2f2bf4f"><path d="M 7.769531 5.4375 L 29.234375 5.4375 L 29.234375 29.863281 L 7.769531 29.863281 Z M 7.769531 5.4375 " clip-rule="nonzero"/></clipPath></defs><g clip-path="url(#8940d9d5f2)"><g clip-path="url(#2a7be1acf1)"><path fill="#0a3641" d="M 0 0 L 36.84375 0 L 36.84375 36.84375 L 0 36.84375 Z M 0 0 " fill-opacity="1" fill-rule="nonzero"/></g></g><g clip-path="url(#10b2f2bf4f)"><path fill="#ffffff" d="M 27.777344 28.46875 C 27.777344 28.539062 27.722656 28.59375 27.652344 28.59375 L 22.125 28.59375 C 22.054688 28.59375 21.996094 28.539062 21.996094 28.46875 L 21.996094 19.976562 C 21.996094 19.195312 21.359375 18.558594 20.578125 18.558594 L 16.300781 18.558594 C 15.519531 18.558594 14.882812 19.195312 14.882812 19.976562 L 14.882812 28.46875 C 14.882812 28.539062 14.824219 28.59375 14.753906 28.59375 L 9.226562 28.59375 C 9.15625 28.59375 9.101562 28.539062 9.101562 28.46875 L 9.101562 16.851562 C 9.101562 16.847656 9.101562 16.839844 9.101562 16.835938 L 9.074219 15.910156 C 9.070312 15.695312 9.15625 15.484375 9.3125 15.335938 L 18.3125 6.796875 C 18.335938 6.773438 18.367188 6.761719 18.398438 6.761719 C 18.433594 6.761719 18.460938 6.773438 18.484375 6.796875 L 27.515625 15.367188 C 27.664062 15.507812 27.746094 15.695312 27.753906 15.898438 L 27.777344 16.859375 Z M 7.804688 28.46875 C 7.804688 29.25 8.441406 29.886719 9.226562 29.886719 L 14.753906 29.886719 C 15.539062 29.886719 16.175781 29.25 16.175781 28.46875 L 16.175781 19.976562 C 16.175781 19.90625 16.230469 19.851562 16.300781 19.851562 L 20.578125 19.851562 C 20.644531 19.851562 20.703125 19.90625 20.703125 19.976562 L 20.703125 28.46875 C 20.703125 29.25 21.339844 29.886719 22.125 29.886719 L 27.652344 29.886719 C 28.433594 29.886719 29.070312 29.25 29.070312 28.46875 L 29.070312 16.851562 C 29.070312 16.847656 29.070312 16.84375 29.070312 16.835938 L 29.046875 15.867188 C 29.03125 15.316406 28.804688 14.804688 28.40625 14.425781 L 19.375 5.859375 C 19.113281 5.609375 18.765625 5.46875 18.398438 5.46875 C 18.035156 5.46875 17.6875 5.609375 17.421875 5.859375 L 8.421875 14.398438 C 8 14.796875 7.765625 15.359375 7.78125 15.941406 L 7.804688 16.859375 L 7.804688 28.46875 " fill-opacity="1" fill-rule="nonzero"/></g></svg>