<svg xmlns="http://www.w3.org/2000/svg" xmlns:xlink="http://www.w3.org/1999/xlink" width="50" zoomAndPan="magnify" viewBox="0 0 37.5 37.499999" height="50" preserveAspectRatio="xMidYMid meet" version="1.0"><defs><clipPath id="b27b23382b"><path d="M 0 0 L 36.84375 0 L 36.84375 36.84375 L 0 36.84375 Z M 0 0 " clip-rule="nonzero"/></clipPath><clipPath id="68454549f4"><path d="M 18.421875 0 C 8.246094 0 0 8.246094 0 18.421875 C 0 28.597656 8.246094 36.84375 18.421875 36.84375 C 28.597656 36.84375 36.84375 28.597656 36.84375 18.421875 C 36.84375 8.246094 28.597656 0 18.421875 0 Z M 18.421875 0 " clip-rule="nonzero"/></clipPath><clipPath id="77cb05536e"><path d="M 7.226562 6.480469 L 29.429688 6.480469 L 29.429688 30.164062 L 7.226562 30.164062 Z M 7.226562 6.480469 " clip-rule="nonzero"/></clipPath></defs><g clip-path="url(#b27b23382b)"><g clip-path="url(#68454549f4)"><path fill="#ffffff" d="M 0 0 L 36.84375 0 L 36.84375 36.84375 L 0 36.84375 Z M 0 0 " fill-opacity="1" fill-rule="nonzero"/></g></g><g clip-path="url(#77cb05536e)"><path fill="#ffffff" d="M 28.902344 25.222656 C 28.273438 25.886719 26.464844 25.59375 25.742188 26.101562 C 24.976562 26.640625 24.890625 28.539062 23.824219 28.980469 C 22.300781 29.613281 20.679688 27.777344 19.160156 28.261719 C 18.390625 28.503906 17.875 29.242188 17.164062 29.652344 C 15.984375 30.328125 14.902344 30.042969 13.957031 28.988281 C 13.558594 28.542969 13.242188 27.859375 12.84375 27.421875 C 12.113281 26.621094 11.757812 26.609375 10.777344 26.703125 C 8.109375 26.953125 7.558594 25.214844 7.589844 24.460938 C 7.652344 22.976562 9.550781 22.335938 10.808594 20.339844 C 11.195312 19.710938 11.472656 19.035156 11.640625 18.316406 C 11.066406 18.273438 10.484375 18.164062 10.078125 17.773438 C 9.648438 17.355469 9.519531 16.730469 9.425781 16.140625 C 9.382812 15.960938 9.378906 15.777344 9.402344 15.59375 C 9.433594 15.394531 9.546875 15.257812 9.734375 15.1875 C 10.046875 15.09375 10.332031 15.417969 10.414062 15.730469 C 10.492188 16.046875 10.460938 16.390625 10.609375 16.679688 C 10.753906 16.96875 11.050781 17.148438 11.355469 17.230469 C 11.519531 17.269531 11.683594 17.292969 11.847656 17.296875 C 12.347656 14.304688 12.027344 10.820312 13.835938 8.703125 C 15.082031 7.242188 16.996094 6.875 18.773438 6.808594 C 19.53125 6.78125 20.308594 6.792969 21.023438 7.078125 C 22.554688 7.675781 23.574219 9.386719 24.078125 11.15625 C 24.582031 12.925781 24.675781 14.816406 25.003906 16.636719 C 25.039062 16.855469 25.082031 17.070312 25.132812 17.285156 C 25.242188 17.277344 25.351562 17.257812 25.457031 17.230469 C 25.765625 17.148438 26.0625 16.964844 26.203125 16.679688 C 26.347656 16.394531 26.324219 16.046875 26.402344 15.730469 C 26.480469 15.417969 26.769531 15.097656 27.078125 15.1875 C 27.269531 15.257812 27.378906 15.394531 27.410156 15.59375 C 27.4375 15.777344 27.429688 15.960938 27.390625 16.140625 C 27.292969 16.730469 27.164062 17.359375 26.734375 17.773438 C 26.378906 18.113281 25.890625 18.242188 25.390625 18.296875 C 25.765625 19.53125 26.328125 20.679688 27.207031 21.484375 C 27.722656 21.953125 28.328125 22.296875 28.761719 22.867188 C 29.191406 23.4375 29.617188 24.460938 28.902344 25.222656 Z M 28.902344 25.222656 " fill-opacity="1" fill-rule="nonzero"/><path fill="#0a3641" d="M 16.230469 11.925781 C 15.976562 11.785156 15.726562 11.792969 15.484375 11.953125 C 15.191406 12.152344 15.082031 12.421875 15.15625 12.769531 C 15.203125 12.960938 15.308594 13.113281 15.472656 13.230469 C 15.519531 13.269531 15.574219 13.300781 15.632812 13.320312 C 15.671875 13.339844 15.714844 13.355469 15.757812 13.367188 C 15.8125 13.378906 15.863281 13.375 15.917969 13.355469 C 15.988281 13.351562 16.054688 13.339844 16.125 13.320312 C 16.289062 13.289062 16.417969 13.203125 16.515625 13.066406 C 16.585938 12.933594 16.617188 12.792969 16.605469 12.644531 C 16.605469 12.355469 16.5 12.066406 16.230469 11.925781 Z M 15.660156 12.5 C 15.660156 12.496094 15.664062 12.488281 15.664062 12.484375 C 15.664062 12.488281 15.660156 12.496094 15.660156 12.5 Z M 15.914062 12.621094 C 15.914062 12.621094 15.914062 12.621094 15.914062 12.628906 Z M 15.914062 12.601562 L 15.914062 12.605469 Z M 15.851562 12.578125 Z M 15.839844 12.335938 L 15.867188 12.335938 C 15.855469 12.339844 15.847656 12.339844 15.839844 12.335938 Z M 15.917969 12.628906 C 15.917969 12.636719 15.917969 12.636719 15.914062 12.628906 C 15.90625 12.625 15.90625 12.621094 15.902344 12.613281 C 15.902344 12.613281 15.902344 12.617188 15.902344 12.617188 L 15.90625 12.617188 Z M 15.921875 12.59375 C 15.921875 12.589844 15.921875 12.589844 15.921875 12.585938 C 15.925781 12.582031 15.929688 12.578125 15.933594 12.578125 C 15.929688 12.582031 15.925781 12.585938 15.921875 12.59375 Z M 16.007812 12.371094 L 16.015625 12.371094 L 16.027344 12.382812 C 16.019531 12.378906 16.011719 12.378906 16.007812 12.371094 Z M 16.097656 12.800781 L 16.089844 12.800781 L 16.101562 12.792969 Z M 21.304688 11.925781 C 21.050781 11.785156 20.800781 11.792969 20.558594 11.953125 C 20.265625 12.152344 20.160156 12.421875 20.234375 12.769531 C 20.28125 12.960938 20.386719 13.113281 20.546875 13.230469 C 20.59375 13.269531 20.648438 13.300781 20.707031 13.320312 C 20.75 13.339844 20.789062 13.355469 20.835938 13.367188 C 20.886719 13.378906 20.941406 13.375 20.992188 13.355469 C 21.0625 13.351562 21.132812 13.339844 21.199219 13.320312 C 21.363281 13.289062 21.496094 13.203125 21.589844 13.066406 C 21.664062 12.933594 21.691406 12.792969 21.683594 12.644531 C 21.683594 12.355469 21.578125 12.066406 21.304688 11.925781 Z M 20.734375 12.5 L 20.738281 12.484375 C 20.738281 12.492188 20.738281 12.496094 20.738281 12.5 Z M 20.988281 12.621094 L 20.988281 12.628906 Z M 20.988281 12.601562 L 20.988281 12.605469 Z M 20.925781 12.578125 Z M 20.917969 12.335938 L 20.945312 12.335938 C 20.933594 12.339844 20.925781 12.339844 20.917969 12.335938 Z M 20.992188 12.628906 C 20.992188 12.636719 20.992188 12.636719 20.988281 12.628906 C 20.988281 12.628906 20.984375 12.625 20.984375 12.617188 C 20.984375 12.621094 20.984375 12.621094 20.984375 12.625 C 20.984375 12.625 20.984375 12.625 20.988281 12.625 C 20.992188 12.625 20.988281 12.625 20.988281 12.625 Z M 21 12.59375 L 21.003906 12.585938 C 21.007812 12.582031 21.011719 12.578125 21.015625 12.578125 C 21.007812 12.582031 21.003906 12.585938 21 12.59375 Z M 21.082031 12.371094 L 21.089844 12.371094 L 21.101562 12.382812 C 21.09375 12.382812 21.085938 12.375 21.085938 12.371094 Z M 21.171875 12.800781 C 21.175781 12.796875 21.175781 12.796875 21.179688 12.792969 Z M 19.628906 14.570312 C 19.738281 14.6875 19.738281 14.804688 19.628906 14.921875 C 19.363281 15.230469 18.976562 15.351562 18.582031 15.34375 C 18.1875 15.339844 17.78125 15.226562 17.5625 14.882812 C 17.527344 14.824219 17.519531 14.761719 17.535156 14.695312 C 17.550781 14.628906 17.589844 14.578125 17.648438 14.542969 C 17.792969 14.460938 17.90625 14.492188 17.992188 14.632812 L 17.996094 14.640625 L 18.023438 14.671875 L 18.058594 14.703125 L 18.0625 14.703125 C 18.09375 14.722656 18.125 14.742188 18.160156 14.757812 C 18.171875 14.765625 18.1875 14.773438 18.203125 14.78125 L 18.214844 14.785156 C 18.25 14.796875 18.28125 14.808594 18.3125 14.816406 C 18.324219 14.816406 18.378906 14.828125 18.378906 14.832031 C 18.453125 14.839844 18.53125 14.84375 18.609375 14.84375 C 18.683594 14.84375 18.753906 14.835938 18.828125 14.828125 C 18.859375 14.820312 18.890625 14.816406 18.921875 14.804688 L 18.964844 14.792969 C 19.03125 14.765625 19.09375 14.730469 19.152344 14.691406 L 19.167969 14.679688 L 19.207031 14.644531 C 19.230469 14.621094 19.253906 14.597656 19.273438 14.570312 C 19.324219 14.523438 19.382812 14.496094 19.449219 14.496094 C 19.519531 14.496094 19.578125 14.519531 19.628906 14.570312 Z M 28.976562 22.738281 C 28.523438 22.152344 27.894531 21.78125 27.359375 21.285156 C 26.875 20.820312 26.484375 20.285156 26.195312 19.683594 C 26.003906 19.300781 25.847656 18.910156 25.714844 18.503906 C 26.027344 18.457031 26.324219 18.351562 26.597656 18.191406 C 27.144531 17.851562 27.410156 17.269531 27.542969 16.660156 C 27.574219 16.515625 27.601562 16.371094 27.625 16.222656 C 27.664062 16.042969 27.679688 15.859375 27.671875 15.671875 C 27.640625 15.355469 27.457031 15.023438 27.125 14.9375 C 26.789062 14.855469 26.484375 15.070312 26.308594 15.339844 C 26.132812 15.613281 26.132812 15.941406 26.078125 16.253906 C 26.0625 16.414062 26.007812 16.554688 25.914062 16.679688 C 25.816406 16.792969 25.703125 16.875 25.566406 16.929688 C 25.492188 16.964844 25.410156 16.988281 25.328125 17.007812 C 25.226562 16.492188 25.144531 15.976562 25.070312 15.460938 C 24.847656 13.871094 24.707031 12.246094 24.203125 10.710938 C 23.789062 9.449219 23.113281 8.191406 22.039062 7.371094 C 21.460938 6.9375 20.8125 6.679688 20.097656 6.597656 C 19.378906 6.507812 18.636719 6.546875 17.921875 6.617188 C 16.589844 6.75 15.261719 7.117188 14.214844 7.976562 C 13.292969 8.742188 12.738281 9.839844 12.425781 10.980469 C 12.105469 12.15625 12.003906 13.378906 11.898438 14.585938 C 11.828125 15.40625 11.761719 16.222656 11.640625 17.03125 C 11.273438 16.984375 10.925781 16.851562 10.796875 16.496094 C 10.683594 16.199219 10.730469 15.863281 10.613281 15.566406 C 10.503906 15.28125 10.28125 14.996094 9.960938 14.9375 C 9.609375 14.871094 9.316406 15.101562 9.195312 15.417969 C 9.070312 15.730469 9.160156 16.109375 9.222656 16.433594 C 9.328125 17.023438 9.519531 17.652344 10.007812 18.042969 C 10.390625 18.347656 10.847656 18.476562 11.320312 18.535156 C 11.207031 18.953125 11.050781 19.355469 10.859375 19.742188 C 10.5625 20.316406 10.191406 20.835938 9.742188 21.300781 C 9.332031 21.734375 8.878906 22.121094 8.449219 22.53125 C 8.09375 22.863281 7.734375 23.234375 7.527344 23.683594 C 7.222656 24.351562 7.308594 25.113281 7.6875 25.734375 C 8.203125 26.582031 9.160156 26.941406 10.117188 26.972656 C 10.445312 26.972656 10.769531 26.957031 11.097656 26.921875 C 11.226562 26.914062 11.355469 26.910156 11.484375 26.910156 C 11.535156 26.910156 11.589844 26.917969 11.640625 26.921875 L 11.691406 26.929688 C 11.71875 26.9375 11.75 26.941406 11.777344 26.949219 C 11.984375 27.007812 12.167969 27.113281 12.324219 27.257812 C 12.566406 27.472656 12.78125 27.714844 12.960938 27.988281 C 13.164062 28.285156 13.34375 28.597656 13.558594 28.886719 C 13.777344 29.1875 14.03125 29.449219 14.324219 29.679688 C 14.835938 30.074219 15.464844 30.324219 16.125 30.253906 C 16.832031 30.179688 17.433594 29.820312 17.96875 29.367188 C 18.203125 29.152344 18.453125 28.949219 18.710938 28.761719 C 18.945312 28.597656 19.203125 28.488281 19.484375 28.441406 C 20.039062 28.371094 20.578125 28.578125 21.097656 28.785156 C 21.648438 29.007812 22.191406 29.257812 22.78125 29.335938 C 23.34375 29.414062 23.9375 29.3125 24.363281 28.921875 C 24.742188 28.574219 24.953125 28.074219 25.148438 27.605469 C 25.25 27.363281 25.316406 27.179688 25.425781 26.953125 C 25.476562 26.847656 25.527344 26.746094 25.589844 26.644531 C 25.617188 26.601562 25.648438 26.558594 25.675781 26.515625 L 25.6875 26.496094 L 25.695312 26.488281 C 25.710938 26.46875 25.726562 26.449219 25.742188 26.433594 C 25.773438 26.398438 25.808594 26.363281 25.84375 26.332031 L 25.855469 26.324219 L 25.863281 26.316406 C 25.886719 26.300781 25.910156 26.285156 25.9375 26.273438 C 25.960938 26.257812 25.980469 26.246094 26.003906 26.234375 C 26.011719 26.234375 26.042969 26.21875 26.046875 26.214844 C 26.097656 26.195312 26.144531 26.179688 26.195312 26.164062 C 26.316406 26.128906 26.4375 26.101562 26.5625 26.078125 C 26.699219 26.054688 26.8125 26.039062 26.929688 26.023438 C 27.464844 25.957031 28.035156 25.941406 28.542969 25.734375 C 28.792969 25.644531 29 25.496094 29.167969 25.289062 C 29.394531 25.011719 29.515625 24.691406 29.535156 24.332031 C 29.558594 23.757812 29.308594 23.1875 28.976562 22.738281 Z M 29.023438 24.445312 C 29 24.585938 28.953125 24.71875 28.878906 24.839844 C 28.847656 24.898438 28.808594 24.953125 28.761719 25.007812 C 28.742188 25.03125 28.71875 25.054688 28.695312 25.078125 C 28.6875 25.085938 28.652344 25.113281 28.652344 25.117188 C 28.613281 25.144531 28.578125 25.167969 28.539062 25.191406 C 28.515625 25.203125 28.492188 25.21875 28.464844 25.230469 L 28.40625 25.253906 C 28.296875 25.296875 28.183594 25.332031 28.070312 25.359375 C 27.546875 25.480469 27.027344 25.496094 26.488281 25.585938 C 26.242188 25.625 26.003906 25.695312 25.777344 25.796875 C 25.574219 25.898438 25.410156 26.042969 25.277344 26.230469 C 24.996094 26.605469 24.835938 27.097656 24.660156 27.507812 C 24.570312 27.730469 24.46875 27.941406 24.351562 28.148438 C 24.320312 28.199219 24.289062 28.25 24.253906 28.296875 C 24.230469 28.335938 24.203125 28.371094 24.171875 28.40625 C 24.136719 28.449219 24.097656 28.488281 24.058594 28.53125 C 24.039062 28.546875 24.023438 28.5625 24.007812 28.578125 L 23.957031 28.621094 C 23.5625 28.921875 23.03125 28.90625 22.566406 28.792969 C 22 28.652344 21.472656 28.390625 20.925781 28.191406 C 20.382812 27.992188 19.816406 27.859375 19.25 27.980469 C 18.601562 28.121094 18.109375 28.601562 17.621094 29.015625 C 17.148438 29.414062 16.589844 29.753906 15.96875 29.769531 C 15.375 29.785156 14.835938 29.496094 14.402344 29.09375 C 14.15625 28.855469 13.941406 28.589844 13.757812 28.300781 C 13.558594 28 13.375 27.691406 13.152344 27.40625 C 12.820312 26.992188 12.375 26.558594 11.835938 26.453125 C 11.261719 26.34375 10.675781 26.496094 10.101562 26.476562 C 9.621094 26.46875 9.171875 26.347656 8.757812 26.113281 C 8.710938 26.085938 8.671875 26.058594 8.628906 26.027344 C 8.609375 26.015625 8.59375 26.003906 8.578125 25.992188 L 8.546875 25.96875 C 8.472656 25.90625 8.40625 25.84375 8.339844 25.773438 C 8.3125 25.742188 8.285156 25.710938 8.257812 25.679688 L 8.230469 25.644531 L 8.199219 25.605469 C 8.152344 25.535156 8.109375 25.464844 8.070312 25.390625 C 8.050781 25.355469 8.03125 25.324219 8.015625 25.289062 L 7.992188 25.234375 L 7.992188 25.21875 C 7.964844 25.148438 7.941406 25.078125 7.917969 25.003906 C 7.898438 24.933594 7.882812 24.871094 7.871094 24.800781 C 7.863281 24.769531 7.863281 24.742188 7.855469 24.710938 C 7.871094 24.792969 7.855469 24.695312 7.855469 24.664062 C 7.851562 24.609375 7.847656 24.554688 7.851562 24.5 C 7.851562 24.460938 7.851562 24.421875 7.855469 24.382812 C 7.855469 24.371094 7.855469 24.359375 7.855469 24.34375 C 7.855469 24.34375 7.855469 24.339844 7.855469 24.339844 C 7.855469 24.3125 7.863281 24.285156 7.867188 24.261719 C 7.890625 24.15625 7.921875 24.054688 7.960938 23.957031 C 7.960938 23.949219 7.976562 23.917969 7.980469 23.914062 C 7.992188 23.890625 8.003906 23.863281 8.015625 23.839844 C 8.042969 23.792969 8.070312 23.746094 8.097656 23.695312 C 8.21875 23.507812 8.355469 23.335938 8.515625 23.179688 C 8.695312 22.992188 8.886719 22.8125 9.082031 22.636719 C 9.996094 21.796875 10.882812 20.925781 11.40625 19.78125 C 11.585938 19.390625 11.726562 18.988281 11.839844 18.574219 L 11.96875 18.578125 C 12.039062 18.578125 12.097656 18.554688 12.148438 18.507812 C 12.195312 18.457031 12.21875 18.398438 12.21875 18.332031 C 12.21875 18.261719 12.195312 18.203125 12.148438 18.152344 C 12.097656 18.105469 12.039062 18.082031 11.96875 18.082031 C 11.46875 18.0625 10.929688 18.027344 10.492188 17.765625 C 10.039062 17.492188 9.859375 16.988281 9.753906 16.492188 C 9.726562 16.363281 9.703125 16.234375 9.683594 16.105469 C 9.648438 15.957031 9.640625 15.808594 9.65625 15.660156 C 9.667969 15.574219 9.707031 15.5 9.773438 15.445312 C 9.828125 15.40625 9.882812 15.40625 9.941406 15.445312 C 10.128906 15.550781 10.1875 15.792969 10.222656 16.015625 C 10.261719 16.324219 10.285156 16.644531 10.464844 16.910156 C 10.886719 17.515625 11.652344 17.5625 12.324219 17.546875 C 12.644531 17.539062 12.644531 17.039062 12.324219 17.046875 L 12.148438 17.046875 C 12.183594 16.820312 12.214844 16.589844 12.242188 16.363281 C 12.378906 15.179688 12.4375 13.96875 12.59375 12.796875 C 12.726562 11.699219 12.964844 10.570312 13.507812 9.609375 C 13.789062 9.101562 14.15625 8.664062 14.609375 8.296875 C 15.105469 7.910156 15.652344 7.628906 16.253906 7.449219 C 16.851562 7.265625 17.464844 7.148438 18.089844 7.101562 C 18.796875 7.039062 19.535156 7 20.234375 7.121094 C 20.878906 7.230469 21.445312 7.5 21.9375 7.925781 C 22.40625 8.351562 22.789062 8.839844 23.089844 9.394531 C 23.804688 10.671875 24.101562 12.125 24.3125 13.558594 C 24.484375 14.722656 24.601562 15.898438 24.832031 17.054688 C 24.71875 17.054688 24.609375 17.054688 24.503906 17.046875 C 24.179688 17.042969 24.179688 17.539062 24.503906 17.546875 C 25.105469 17.5625 25.773438 17.539062 26.222656 17.078125 C 26.453125 16.84375 26.535156 16.550781 26.578125 16.234375 C 26.609375 15.988281 26.617188 15.71875 26.777344 15.535156 C 26.808594 15.5 26.84375 15.46875 26.886719 15.445312 C 26.910156 15.429688 26.941406 15.421875 26.96875 15.421875 C 26.976562 15.421875 26.984375 15.421875 26.992188 15.421875 L 27.015625 15.429688 C 26.992188 15.421875 27.039062 15.445312 27.054688 15.453125 C 27.066406 15.464844 27.078125 15.476562 27.09375 15.488281 C 27.09375 15.488281 27.128906 15.539062 27.136719 15.558594 C 27.234375 15.757812 27.152344 16.078125 27.109375 16.304688 C 27.019531 16.804688 26.882812 17.355469 26.464844 17.683594 C 26.019531 18.03125 25.402344 18.066406 24.855469 18.085938 C 24.691406 18.089844 24.609375 18.171875 24.605469 18.335938 C 24.605469 18.40625 24.632812 18.464844 24.679688 18.511719 C 24.726562 18.5625 24.789062 18.585938 24.855469 18.585938 C 24.972656 18.582031 25.09375 18.574219 25.210938 18.566406 C 25.578125 19.71875 26.132812 20.84375 27.03125 21.664062 C 27.523438 22.117188 28.132812 22.457031 28.542969 22.992188 C 28.851562 23.402344 29.109375 23.941406 29.023438 24.445312 Z M 29.023438 24.445312 " fill-opacity="1" fill-rule="nonzero"/></g></svg>