<svg xmlns="http://www.w3.org/2000/svg" xmlns:xlink="http://www.w3.org/1999/xlink" width="50" zoomAndPan="magnify" viewBox="0 0 37.5 37.499999" height="50" preserveAspectRatio="xMidYMid meet" version="1.0"><defs><clipPath id="15acc5b4b4"><path d="M 0 0 L 36.84375 0 L 36.84375 36.84375 L 0 36.84375 Z M 0 0 " clip-rule="nonzero"/></clipPath><clipPath id="538c75537b"><path d="M 18.421875 0 C 8.246094 0 0 8.246094 0 18.421875 C 0 28.597656 8.246094 36.84375 18.421875 36.84375 C 28.597656 36.84375 36.84375 28.597656 36.84375 18.421875 C 36.84375 8.246094 28.597656 0 18.421875 0 Z M 18.421875 0 " clip-rule="nonzero"/></clipPath><clipPath id="2865a2d81f"><path d="M 0 0 L 37.007812 0 L 37.007812 37.007812 L 0 37.007812 Z M 0 0 " clip-rule="nonzero"/></clipPath><clipPath id="8d257b0ce5"><path d="M 11.273438 2.21875 L 25.574219 2.21875 L 25.574219 16.523438 L 11.273438 16.523438 Z M 11.273438 2.21875 " clip-rule="nonzero"/></clipPath><clipPath id="96e14820d4"><path d="M 18.421875 2.21875 C 14.472656 2.21875 11.273438 5.421875 11.273438 9.371094 C 11.273438 13.320312 14.472656 16.523438 18.421875 16.523438 C 22.371094 16.523438 25.574219 13.320312 25.574219 9.371094 C 25.574219 5.421875 22.371094 2.21875 18.421875 2.21875 Z M 18.421875 2.21875 " clip-rule="nonzero"/></clipPath><clipPath id="cd2517a3cc"><path d="M 12.226562 3.175781 L 24.617188 3.175781 L 24.617188 15.566406 L 12.226562 15.566406 Z M 12.226562 3.175781 " clip-rule="nonzero"/></clipPath><clipPath id="85285817dd"><path d="M 18.421875 3.175781 C 15 3.175781 12.226562 5.949219 12.226562 9.371094 C 12.226562 12.792969 15 15.566406 18.421875 15.566406 C 21.84375 15.566406 24.617188 12.792969 24.617188 9.371094 C 24.617188 5.949219 21.84375 3.175781 18.421875 3.175781 Z M 18.421875 3.175781 " clip-rule="nonzero"/></clipPath></defs><g clip-path="url(#15acc5b4b4)"><g clip-path="url(#538c75537b)"><path fill="#ffffff" d="M 0 0 L 36.84375 0 L 36.84375 36.84375 L 0 36.84375 Z M 0 0 " fill-opacity="1" fill-rule="nonzero"/></g></g><g clip-path="url(#2865a2d81f)"><path stroke-linecap="butt" transform="matrix(0.740132, 0, 0, 0.740132, 6.699672, 14.820645)" fill="none" stroke-linejoin="miter" d="M 1.888833 22.002608 C 11.188278 -4.666005 20.487723 -4.666005 29.787168 22.002608 " stroke="#0a3641" stroke-width="4" stroke-opacity="1" stroke-miterlimit="4"/></g><g clip-path="url(#8d257b0ce5)"><g clip-path="url(#96e14820d4)"><path fill="#0a3641" d="M 11.273438 2.21875 L 25.574219 2.21875 L 25.574219 16.523438 L 11.273438 16.523438 Z M 11.273438 2.21875 " fill-opacity="1" fill-rule="nonzero"/></g></g><g clip-path="url(#cd2517a3cc)"><g clip-path="url(#85285817dd)"><path fill="#ffffff" d="M 12.226562 3.175781 L 24.617188 3.175781 L 24.617188 15.566406 L 12.226562 15.566406 Z M 12.226562 3.175781 " fill-opacity="1" fill-rule="nonzero"/></g></g></svg>