<svg xmlns="http://www.w3.org/2000/svg" xmlns:xlink="http://www.w3.org/1999/xlink" width="748" zoomAndPan="magnify" viewBox="0 0 561 72.749999" height="97" preserveAspectRatio="xMidYMid meet" version="1.0"><defs><g/><clipPath id="70c55b419f"><path d="M 4 2 L 79 2 L 79 68 L 4 68 Z M 4 2 " clip-rule="nonzero"/></clipPath><clipPath id="8a6281d7cc"><path d="M 2.523438 65.339844 L 76.503906 -0.0078125 L 80.523438 4.542969 L 6.542969 69.890625 Z M 2.523438 65.339844 " clip-rule="nonzero"/></clipPath><clipPath id="d7a8bea160"><path d="M 39.511719 32.667969 C 19.085938 50.714844 3.425781 66.359375 4.535156 67.617188 C 5.644531 68.871094 23.105469 55.261719 43.53125 37.21875 C 63.957031 19.175781 79.617188 3.527344 78.507812 2.273438 C 77.398438 1.015625 59.9375 14.625 39.511719 32.667969 Z M 39.511719 32.667969 " clip-rule="nonzero"/></clipPath><clipPath id="3bd5562222"><path d="M 2 2 L 78 2 L 78 68 L 2 68 Z M 2 2 " clip-rule="nonzero"/></clipPath><clipPath id="1ad33c891e"><path d="M 4.949219 0.367188 L 79.925781 65.238281 L 75.9375 69.851562 L 0.957031 4.980469 Z M 4.949219 0.367188 " clip-rule="nonzero"/></clipPath><clipPath id="23574ef362"><path d="M 42.433594 32.800781 C 21.730469 14.890625 4.054688 1.402344 2.953125 2.675781 C 1.851562 3.949219 17.742188 19.5 38.445312 37.414062 C 59.148438 55.324219 76.824219 68.8125 77.925781 67.539062 C 79.027344 66.265625 63.136719 50.714844 42.433594 32.800781 Z M 42.433594 32.800781 " clip-rule="nonzero"/></clipPath><clipPath id="ad65da43a6"><path d="M 483 2 L 558 2 L 558 68 L 483 68 Z M 483 2 " clip-rule="nonzero"/></clipPath><clipPath id="5be828e22c"><path d="M 481.558594 65.339844 L 555.539062 -0.0078125 L 559.558594 4.542969 L 485.578125 69.890625 Z M 481.558594 65.339844 " clip-rule="nonzero"/></clipPath><clipPath id="184fa3ce2e"><path d="M 518.546875 32.667969 C 498.121094 50.714844 482.460938 66.359375 483.570312 67.617188 C 484.679688 68.871094 502.140625 55.261719 522.566406 37.21875 C 542.992188 19.175781 558.652344 3.527344 557.542969 2.273438 C 556.433594 1.015625 538.972656 14.625 518.546875 32.667969 Z M 518.546875 32.667969 " clip-rule="nonzero"/></clipPath><clipPath id="a5e1f5105e"><path d="M 481 2 L 558 2 L 558 68 L 481 68 Z M 481 2 " clip-rule="nonzero"/></clipPath><clipPath id="27f46f6b22"><path d="M 483.984375 0.367188 L 558.960938 65.238281 L 554.972656 69.851562 L 479.996094 4.980469 Z M 483.984375 0.367188 " clip-rule="nonzero"/></clipPath><clipPath id="2866aa9158"><path d="M 521.46875 32.800781 C 500.765625 14.890625 483.089844 1.402344 481.988281 2.675781 C 480.886719 3.949219 496.777344 19.5 517.480469 37.414062 C 538.183594 55.324219 555.859375 68.8125 556.960938 67.539062 C 558.0625 66.265625 542.171875 50.714844 521.46875 32.800781 Z M 521.46875 32.800781 " clip-rule="nonzero"/></clipPath></defs><g clip-path="url(#70c55b419f)"><g clip-path="url(#8a6281d7cc)"><g clip-path="url(#d7a8bea160)"><path fill="#cb9b46" d="M 2.523438 65.339844 L 76.503906 -0.0078125 L 80.523438 4.542969 L 6.542969 69.890625 Z M 2.523438 65.339844 " fill-opacity="1" fill-rule="nonzero"/></g></g></g><g clip-path="url(#3bd5562222)"><g clip-path="url(#1ad33c891e)"><g clip-path="url(#23574ef362)"><path fill="#cb9b46" d="M 4.949219 0.367188 L 79.925781 65.238281 L 75.9375 69.851562 L 0.957031 4.980469 Z M 4.949219 0.367188 " fill-opacity="1" fill-rule="nonzero"/></g></g></g><g fill="#ffffff" fill-opacity="1"><g transform="translate(75.84858, 47.784734)"><g><path d="M 2.546875 0 L 2.546875 -22.484375 L 11.453125 -22.484375 C 14.128906 -22.484375 16.1875 -21.820312 17.625 -20.5 C 19.070312 -19.1875 19.785156 -17.46875 19.765625 -15.34375 C 19.765625 -13.9375 19.441406 -12.691406 18.796875 -11.609375 C 18.148438 -10.523438 17.203125 -9.675781 15.953125 -9.0625 C 14.710938 -8.457031 13.203125 -8.15625 11.421875 -8.15625 L 5.484375 -8.15625 L 5.484375 0 Z M 5.484375 -10.453125 L 11.1875 -10.453125 C 13.0625 -10.453125 14.472656 -10.910156 15.421875 -11.828125 C 16.367188 -12.742188 16.84375 -13.914062 16.84375 -15.34375 C 16.84375 -16.738281 16.363281 -17.894531 15.40625 -18.8125 C 14.445312 -19.726562 13.039062 -20.1875 11.1875 -20.1875 L 5.484375 -20.1875 Z M 5.484375 -10.453125 "/></g></g></g><g fill="#ffffff" fill-opacity="1"><g transform="translate(96.891075, 47.784734)"><g><path d="M 8.390625 0.578125 C 7.109375 0.578125 5.992188 0.269531 5.046875 -0.34375 C 4.109375 -0.96875 3.378906 -1.816406 2.859375 -2.890625 C 2.335938 -3.960938 2.078125 -5.175781 2.078125 -6.53125 L 2.078125 -16.109375 L 4.78125 -16.109375 L 4.78125 -6.890625 C 4.78125 -5.398438 5.179688 -4.175781 5.984375 -3.21875 C 6.796875 -2.257812 7.894531 -1.78125 9.28125 -1.78125 C 10.195312 -1.78125 11.019531 -1.992188 11.75 -2.421875 C 12.488281 -2.847656 13.070312 -3.4375 13.5 -4.1875 C 13.9375 -4.945312 14.15625 -5.796875 14.15625 -6.734375 L 14.15625 -16.109375 L 16.84375 -16.109375 L 16.84375 0 L 14.15625 0 L 14.15625 -2.84375 L 13.90625 -2.84375 C 13.351562 -1.78125 12.601562 -0.941406 11.65625 -0.328125 C 10.707031 0.273438 9.617188 0.578125 8.390625 0.578125 Z M 8.390625 0.578125 "/></g></g></g><g fill="#ffffff" fill-opacity="1"><g transform="translate(116.116268, 47.784734)"><g><path d="M 8.546875 0.609375 C 7.097656 0.609375 5.832031 0.367188 4.75 -0.109375 C 3.664062 -0.585938 2.828125 -1.257812 2.234375 -2.125 C 1.640625 -3 1.34375 -4.003906 1.34375 -5.140625 L 3.703125 -5.140625 C 3.722656 -4.003906 4.175781 -3.078125 5.0625 -2.359375 C 5.957031 -1.640625 7.128906 -1.28125 8.578125 -1.28125 C 9.765625 -1.28125 10.753906 -1.539062 11.546875 -2.0625 C 12.347656 -2.582031 12.75 -3.265625 12.75 -4.109375 C 12.75 -4.984375 12.519531 -5.613281 12.0625 -6 C 11.613281 -6.394531 11.019531 -6.664062 10.28125 -6.8125 C 9.550781 -6.96875 8.769531 -7.097656 7.9375 -7.203125 C 7.21875 -7.304688 6.488281 -7.425781 5.75 -7.5625 C 5.019531 -7.707031 4.34375 -7.9375 3.71875 -8.25 C 3.09375 -8.570312 2.585938 -9.023438 2.203125 -9.609375 C 1.816406 -10.191406 1.625 -10.960938 1.625 -11.921875 C 1.625 -13.367188 2.21875 -14.523438 3.40625 -15.390625 C 4.601562 -16.265625 6.164062 -16.703125 8.09375 -16.703125 C 9.4375 -16.703125 10.617188 -16.484375 11.640625 -16.046875 C 12.660156 -15.617188 13.460938 -15 14.046875 -14.1875 C 14.628906 -13.382812 14.910156 -12.441406 14.890625 -11.359375 L 12.4375 -11.359375 C 12.4375 -12.421875 12.035156 -13.265625 11.234375 -13.890625 C 10.441406 -14.515625 9.394531 -14.828125 8.09375 -14.828125 C 6.925781 -14.828125 5.972656 -14.582031 5.234375 -14.09375 C 4.503906 -13.601562 4.140625 -12.96875 4.140625 -12.1875 C 4.140625 -11.414062 4.363281 -10.835938 4.8125 -10.453125 C 5.257812 -10.078125 5.84375 -9.804688 6.5625 -9.640625 C 7.289062 -9.484375 8.054688 -9.351562 8.859375 -9.25 C 9.628906 -9.144531 10.398438 -9.003906 11.171875 -8.828125 C 11.953125 -8.660156 12.660156 -8.414062 13.296875 -8.09375 C 13.929688 -7.78125 14.445312 -7.328125 14.84375 -6.734375 C 15.238281 -6.140625 15.4375 -5.363281 15.4375 -4.40625 C 15.4375 -3.382812 15.144531 -2.492188 14.5625 -1.734375 C 13.976562 -0.984375 13.171875 -0.40625 12.140625 0 C 11.109375 0.40625 9.910156 0.609375 8.546875 0.609375 Z M 8.546875 0.609375 "/></g></g></g><g fill="#ffffff" fill-opacity="1"><g transform="translate(132.8865, 47.784734)"><g><path d="M 2.390625 0 L 2.390625 -23.4375 L 5.078125 -23.4375 L 5.078125 -13.296875 L 5.296875 -13.296875 C 5.847656 -14.359375 6.597656 -15.1875 7.546875 -15.78125 C 8.492188 -16.375 9.582031 -16.671875 10.8125 -16.671875 C 12.101562 -16.671875 13.21875 -16.367188 14.15625 -15.765625 C 15.09375 -15.160156 15.820312 -14.328125 16.34375 -13.265625 C 16.863281 -12.203125 17.125 -10.988281 17.125 -9.625 L 17.125 0 L 14.453125 0 L 14.453125 -9.25 C 14.453125 -10.738281 14.046875 -11.953125 13.234375 -12.890625 C 12.421875 -13.835938 11.328125 -14.3125 9.953125 -14.3125 C 9.054688 -14.3125 8.234375 -14.097656 7.484375 -13.671875 C 6.742188 -13.253906 6.15625 -12.675781 5.71875 -11.9375 C 5.289062 -11.207031 5.078125 -10.363281 5.078125 -9.40625 L 5.078125 0 Z M 2.390625 0 "/></g></g></g><g fill="#ffffff" fill-opacity="1"><g transform="translate(152.111693, 47.784734)"><g><path d="M 3.859375 -19.03125 C 3.347656 -19.03125 2.921875 -19.195312 2.578125 -19.53125 C 2.242188 -19.863281 2.078125 -20.285156 2.078125 -20.796875 C 2.078125 -21.328125 2.242188 -21.753906 2.578125 -22.078125 C 2.921875 -22.410156 3.347656 -22.578125 3.859375 -22.578125 C 4.390625 -22.578125 4.820312 -22.410156 5.15625 -22.078125 C 5.5 -21.753906 5.671875 -21.328125 5.671875 -20.796875 C 5.671875 -20.285156 5.5 -19.863281 5.15625 -19.53125 C 4.820312 -19.195312 4.390625 -19.03125 3.859375 -19.03125 Z M 2.515625 0 L 2.515625 -16.109375 L 5.203125 -16.109375 L 5.203125 0 Z M 2.515625 0 "/></g></g></g><g fill="#ffffff" fill-opacity="1"><g transform="translate(159.859155, 47.784734)"><g><path d="M 2.390625 0 L 2.390625 -16.109375 L 5.078125 -16.109375 L 5.078125 -13.265625 L 5.296875 -13.265625 C 5.847656 -14.328125 6.597656 -15.160156 7.546875 -15.765625 C 8.492188 -16.367188 9.582031 -16.671875 10.8125 -16.671875 C 12.101562 -16.671875 13.21875 -16.363281 14.15625 -15.75 C 15.09375 -15.132812 15.820312 -14.296875 16.34375 -13.234375 C 16.863281 -12.171875 17.125 -10.957031 17.125 -9.59375 L 17.125 0 L 14.421875 0 L 14.421875 -9.21875 C 14.421875 -10.707031 14.019531 -11.925781 13.21875 -12.875 C 12.414062 -13.832031 11.328125 -14.3125 9.953125 -14.3125 C 9.054688 -14.3125 8.234375 -14.097656 7.484375 -13.671875 C 6.742188 -13.253906 6.15625 -12.675781 5.71875 -11.9375 C 5.289062 -11.207031 5.078125 -10.363281 5.078125 -9.40625 L 5.078125 0 Z M 2.390625 0 "/></g></g></g><g fill="#ffffff" fill-opacity="1"><g transform="translate(179.084348, 47.784734)"><g><path d="M 10.171875 7.90625 C 8.640625 7.90625 7.253906 7.648438 6.015625 7.140625 C 4.785156 6.628906 3.78125 5.910156 3 4.984375 C 2.226562 4.066406 1.75 2.988281 1.5625 1.75 L 4.203125 1.40625 C 4.335938 2.226562 4.675781 2.960938 5.21875 3.609375 C 5.757812 4.265625 6.445312 4.769531 7.28125 5.125 C 8.125 5.488281 9.046875 5.671875 10.046875 5.671875 C 11.191406 5.671875 12.191406 5.425781 13.046875 4.9375 C 13.910156 4.445312 14.585938 3.765625 15.078125 2.890625 C 15.566406 2.023438 15.8125 1.019531 15.8125 -0.125 L 15.8125 -3.1875 L 15.59375 -3.1875 C 14.9375 -2.0625 14.078125 -1.164062 13.015625 -0.5 C 11.953125 0.15625 10.707031 0.484375 9.28125 0.484375 C 7.726562 0.484375 6.351562 0.125 5.15625 -0.59375 C 3.96875 -1.320312 3.035156 -2.328125 2.359375 -3.609375 C 1.679688 -4.898438 1.34375 -6.382812 1.34375 -8.0625 C 1.34375 -9.789062 1.679688 -11.296875 2.359375 -12.578125 C 3.035156 -13.867188 3.96875 -14.875 5.15625 -15.59375 C 6.351562 -16.3125 7.726562 -16.671875 9.28125 -16.671875 C 10.726562 -16.671875 12 -16.332031 13.09375 -15.65625 C 14.1875 -14.976562 15.039062 -14.054688 15.65625 -12.890625 L 15.90625 -12.890625 L 15.90625 -16.109375 L 18.5 -16.109375 L 18.5 -0.0625 C 18.5 1.53125 18.144531 2.921875 17.4375 4.109375 C 16.738281 5.304688 15.765625 6.238281 14.515625 6.90625 C 13.273438 7.570312 11.828125 7.90625 10.171875 7.90625 Z M 9.984375 -1.8125 C 11.128906 -1.8125 12.144531 -2.082031 13.03125 -2.625 C 13.925781 -3.164062 14.628906 -3.90625 15.140625 -4.84375 C 15.648438 -5.78125 15.90625 -6.851562 15.90625 -8.0625 C 15.90625 -9.28125 15.648438 -10.351562 15.140625 -11.28125 C 14.628906 -12.21875 13.925781 -12.957031 13.03125 -13.5 C 12.144531 -14.039062 11.128906 -14.3125 9.984375 -14.3125 C 8.816406 -14.3125 7.785156 -14.039062 6.890625 -13.5 C 5.992188 -12.957031 5.289062 -12.21875 4.78125 -11.28125 C 4.269531 -10.351562 4.015625 -9.28125 4.015625 -8.0625 C 4.015625 -6.851562 4.273438 -5.78125 4.796875 -4.84375 C 5.316406 -3.90625 6.023438 -3.164062 6.921875 -2.625 C 7.816406 -2.082031 8.835938 -1.8125 9.984375 -1.8125 Z M 9.984375 -1.8125 "/></g></g></g><g fill="#ffffff" fill-opacity="1"><g transform="translate(199.967437, 47.784734)"><g/></g></g><g fill="#ffffff" fill-opacity="1"><g transform="translate(207.874316, 47.784734)"><g><path d="M 7.78125 0.375 C 6.457031 0.375 5.394531 -0.0546875 4.59375 -0.921875 C 3.800781 -1.796875 3.40625 -2.9375 3.40625 -4.34375 L 3.40625 -14.03125 L 0.796875 -14.03125 L 0.796875 -16.109375 L 3.46875 -16.109375 L 3.890625 -21.046875 L 6.125 -21.046875 L 6.09375 -16.109375 L 10.203125 -16.109375 L 10.203125 -14.03125 L 6.09375 -14.03125 L 6.125 -4.4375 C 6.125 -3.644531 6.328125 -3.007812 6.734375 -2.53125 C 7.148438 -2.050781 7.722656 -1.8125 8.453125 -1.8125 C 8.742188 -1.8125 9.078125 -1.835938 9.453125 -1.890625 C 9.828125 -1.953125 10.160156 -2.023438 10.453125 -2.109375 L 10.453125 -0.0625 C 10.097656 0.0820312 9.671875 0.191406 9.171875 0.265625 C 8.671875 0.335938 8.207031 0.375 7.78125 0.375 Z M 7.78125 0.375 "/></g></g></g><g fill="#ffffff" fill-opacity="1"><g transform="translate(219.352047, 47.784734)"><g><path d="M 2.390625 0 L 2.390625 -23.4375 L 5.078125 -23.4375 L 5.078125 -13.296875 L 5.296875 -13.296875 C 5.847656 -14.359375 6.597656 -15.1875 7.546875 -15.78125 C 8.492188 -16.375 9.582031 -16.671875 10.8125 -16.671875 C 12.101562 -16.671875 13.21875 -16.367188 14.15625 -15.765625 C 15.09375 -15.160156 15.820312 -14.328125 16.34375 -13.265625 C 16.863281 -12.203125 17.125 -10.988281 17.125 -9.625 L 17.125 0 L 14.453125 0 L 14.453125 -9.25 C 14.453125 -10.738281 14.046875 -11.953125 13.234375 -12.890625 C 12.421875 -13.835938 11.328125 -14.3125 9.953125 -14.3125 C 9.054688 -14.3125 8.234375 -14.097656 7.484375 -13.671875 C 6.742188 -13.253906 6.15625 -12.675781 5.71875 -11.9375 C 5.289062 -11.207031 5.078125 -10.363281 5.078125 -9.40625 L 5.078125 0 Z M 2.390625 0 "/></g></g></g><g fill="#ffffff" fill-opacity="1"><g transform="translate(238.57724, 47.784734)"><g><path d="M 10.140625 0.578125 C 8.421875 0.578125 6.898438 0.210938 5.578125 -0.515625 C 4.265625 -1.253906 3.226562 -2.273438 2.46875 -3.578125 C 1.71875 -4.890625 1.34375 -6.394531 1.34375 -8.09375 C 1.34375 -9.800781 1.71875 -11.296875 2.46875 -12.578125 C 3.226562 -13.867188 4.265625 -14.875 5.578125 -15.59375 C 6.898438 -16.3125 8.421875 -16.671875 10.140625 -16.671875 C 11.835938 -16.671875 13.320312 -16.304688 14.59375 -15.578125 C 15.875 -14.847656 16.875 -13.835938 17.59375 -12.546875 C 18.320312 -11.265625 18.6875 -9.769531 18.6875 -8.0625 L 18.65625 -7.265625 L 4.078125 -7.265625 C 4.160156 -6.140625 4.46875 -5.140625 5 -4.265625 C 5.53125 -3.398438 6.25 -2.722656 7.15625 -2.234375 C 8.0625 -1.742188 9.085938 -1.5 10.234375 -1.5 C 11.492188 -1.5 12.632812 -1.835938 13.65625 -2.515625 C 14.675781 -3.203125 15.382812 -4.066406 15.78125 -5.109375 L 18.171875 -4.65625 C 17.859375 -3.632812 17.300781 -2.726562 16.5 -1.9375 C 15.707031 -1.15625 14.757812 -0.539062 13.65625 -0.09375 C 12.5625 0.351562 11.390625 0.578125 10.140625 0.578125 Z M 4.078125 -9.0625 L 15.953125 -9.0625 C 15.878906 -10.144531 15.582031 -11.097656 15.0625 -11.921875 C 14.539062 -12.753906 13.847656 -13.410156 12.984375 -13.890625 C 12.128906 -14.367188 11.160156 -14.609375 10.078125 -14.609375 C 8.421875 -14.609375 7.046875 -14.09375 5.953125 -13.0625 C 4.859375 -12.03125 4.234375 -10.695312 4.078125 -9.0625 Z M 4.078125 -9.0625 "/></g></g></g><g fill="#ffffff" fill-opacity="1"><g transform="translate(258.56761, 47.784734)"><g/></g></g><g fill="#ffffff" fill-opacity="1"><g transform="translate(266.47449, 47.784734)"><g><path d="M 13.484375 0.703125 C 11.742188 0.703125 10.148438 0.410156 8.703125 -0.171875 C 7.253906 -0.753906 6 -1.582031 4.9375 -2.65625 C 3.875 -3.726562 3.050781 -4.992188 2.46875 -6.453125 C 1.882812 -7.910156 1.59375 -9.507812 1.59375 -11.25 C 1.59375 -13 1.882812 -14.597656 2.46875 -16.046875 C 3.050781 -17.503906 3.875 -18.765625 4.9375 -19.828125 C 6 -20.898438 7.253906 -21.726562 8.703125 -22.3125 C 10.148438 -22.894531 11.742188 -23.1875 13.484375 -23.1875 C 15.316406 -23.1875 17.007812 -22.816406 18.5625 -22.078125 C 20.113281 -21.347656 21.410156 -20.347656 22.453125 -19.078125 C 23.492188 -17.816406 24.148438 -16.378906 24.421875 -14.765625 L 21.65625 -14.421875 C 21.414062 -15.585938 20.898438 -16.640625 20.109375 -17.578125 C 19.328125 -18.523438 18.367188 -19.273438 17.234375 -19.828125 C 16.097656 -20.390625 14.867188 -20.671875 13.546875 -20.671875 C 11.785156 -20.671875 10.222656 -20.269531 8.859375 -19.46875 C 7.503906 -18.664062 6.441406 -17.554688 5.671875 -16.140625 C 4.910156 -14.734375 4.53125 -13.101562 4.53125 -11.25 C 4.53125 -9.425781 4.910156 -7.800781 5.671875 -6.375 C 6.441406 -4.945312 7.503906 -3.832031 8.859375 -3.03125 C 10.222656 -2.238281 11.785156 -1.84375 13.546875 -1.84375 C 14.890625 -1.84375 16.128906 -2.109375 17.265625 -2.640625 C 18.398438 -3.171875 19.359375 -3.898438 20.140625 -4.828125 C 20.929688 -5.753906 21.445312 -6.78125 21.6875 -7.90625 L 24.453125 -7.5 C 24.203125 -5.945312 23.5625 -4.550781 22.53125 -3.3125 C 21.5 -2.082031 20.203125 -1.101562 18.640625 -0.375 C 17.078125 0.34375 15.359375 0.703125 13.484375 0.703125 Z M 13.484375 0.703125 "/></g></g></g><g fill="#ffffff" fill-opacity="1"><g transform="translate(292.52255, 47.784734)"><g><path d="M 9.953125 0.578125 C 8.253906 0.578125 6.753906 0.21875 5.453125 -0.5 C 4.160156 -1.226562 3.144531 -2.242188 2.40625 -3.546875 C 1.675781 -4.859375 1.3125 -6.363281 1.3125 -8.0625 C 1.3125 -9.789062 1.675781 -11.296875 2.40625 -12.578125 C 3.144531 -13.867188 4.160156 -14.875 5.453125 -15.59375 C 6.753906 -16.3125 8.253906 -16.671875 9.953125 -16.671875 C 11.648438 -16.671875 13.140625 -16.3125 14.421875 -15.59375 C 15.710938 -14.875 16.722656 -13.867188 17.453125 -12.578125 C 18.191406 -11.296875 18.5625 -9.789062 18.5625 -8.0625 C 18.5625 -6.363281 18.191406 -4.859375 17.453125 -3.546875 C 16.722656 -2.242188 15.710938 -1.226562 14.421875 -0.5 C 13.140625 0.21875 11.648438 0.578125 9.953125 0.578125 Z M 9.953125 -1.78125 C 11.097656 -1.78125 12.113281 -2.050781 13 -2.59375 C 13.894531 -3.132812 14.597656 -3.878906 15.109375 -4.828125 C 15.617188 -5.773438 15.875 -6.851562 15.875 -8.0625 C 15.875 -9.28125 15.617188 -10.351562 15.109375 -11.28125 C 14.597656 -12.21875 13.894531 -12.957031 13 -13.5 C 12.113281 -14.039062 11.097656 -14.3125 9.953125 -14.3125 C 8.804688 -14.3125 7.78125 -14.039062 6.875 -13.5 C 5.96875 -12.957031 5.257812 -12.21875 4.75 -11.28125 C 4.238281 -10.351562 3.984375 -9.28125 3.984375 -8.0625 C 3.984375 -6.851562 4.238281 -5.773438 4.75 -4.828125 C 5.257812 -3.878906 5.96875 -3.132812 6.875 -2.59375 C 7.78125 -2.050781 8.804688 -1.78125 9.953125 -1.78125 Z M 9.953125 -1.78125 "/></g></g></g><g fill="#ffffff" fill-opacity="1"><g transform="translate(312.385391, 47.784734)"><g><path d="M 2.390625 0 L 2.390625 -16.109375 L 5.03125 -16.109375 L 5.03125 -13.515625 L 5.296875 -13.515625 C 5.742188 -14.453125 6.40625 -15.210938 7.28125 -15.796875 C 8.164062 -16.378906 9.191406 -16.671875 10.359375 -16.671875 C 11.679688 -16.671875 12.816406 -16.328125 13.765625 -15.640625 C 14.710938 -14.953125 15.351562 -14.046875 15.6875 -12.921875 L 15.90625 -12.921875 C 16.269531 -14.066406 16.925781 -14.976562 17.875 -15.65625 C 18.820312 -16.332031 19.984375 -16.671875 21.359375 -16.671875 C 22.578125 -16.671875 23.632812 -16.394531 24.53125 -15.84375 C 25.4375 -15.289062 26.144531 -14.515625 26.65625 -13.515625 C 27.164062 -12.515625 27.421875 -11.359375 27.421875 -10.046875 L 27.421875 0 L 24.71875 0 L 24.71875 -9.625 C 24.71875 -11.007812 24.335938 -12.132812 23.578125 -13 C 22.828125 -13.875 21.820312 -14.3125 20.5625 -14.3125 C 19.269531 -14.3125 18.21875 -13.878906 17.40625 -13.015625 C 16.601562 -12.160156 16.203125 -11.03125 16.203125 -9.625 L 16.203125 0 L 13.515625 0 L 13.515625 -9.625 C 13.515625 -11.050781 13.132812 -12.1875 12.375 -13.03125 C 11.625 -13.882812 10.632812 -14.3125 9.40625 -14.3125 C 8.113281 -14.3125 7.066406 -13.882812 6.265625 -13.03125 C 5.472656 -12.1875 5.078125 -11.050781 5.078125 -9.625 L 5.078125 0 Z M 2.390625 0 "/></g></g></g><g fill="#ffffff" fill-opacity="1"><g transform="translate(341.876772, 47.784734)"><g><path d="M 3.703125 0 L 3.703125 -14.03125 L 1.078125 -14.03125 L 1.078125 -16.109375 L 3.703125 -16.109375 L 3.703125 -19.234375 C 3.703125 -20.765625 4.097656 -21.941406 4.890625 -22.765625 C 5.691406 -23.597656 6.726562 -24.015625 8 -24.015625 C 8.445312 -24.015625 8.914062 -23.976562 9.40625 -23.90625 C 9.894531 -23.832031 10.332031 -23.738281 10.71875 -23.625 L 10.71875 -21.359375 C 10.4375 -21.453125 10.109375 -21.523438 9.734375 -21.578125 C 9.367188 -21.628906 9.035156 -21.65625 8.734375 -21.65625 C 8.035156 -21.65625 7.46875 -21.457031 7.03125 -21.0625 C 6.59375 -20.664062 6.375 -20.046875 6.375 -19.203125 L 6.375 -16.109375 L 10.484375 -16.109375 L 10.484375 -14.03125 L 6.375 -14.03125 L 6.375 0 Z M 3.703125 0 "/></g></g></g><g fill="#ffffff" fill-opacity="1"><g transform="translate(353.450144, 47.784734)"><g><path d="M 9.953125 0.578125 C 8.253906 0.578125 6.753906 0.21875 5.453125 -0.5 C 4.160156 -1.226562 3.144531 -2.242188 2.40625 -3.546875 C 1.675781 -4.859375 1.3125 -6.363281 1.3125 -8.0625 C 1.3125 -9.789062 1.675781 -11.296875 2.40625 -12.578125 C 3.144531 -13.867188 4.160156 -14.875 5.453125 -15.59375 C 6.753906 -16.3125 8.253906 -16.671875 9.953125 -16.671875 C 11.648438 -16.671875 13.140625 -16.3125 14.421875 -15.59375 C 15.710938 -14.875 16.722656 -13.867188 17.453125 -12.578125 C 18.191406 -11.296875 18.5625 -9.789062 18.5625 -8.0625 C 18.5625 -6.363281 18.191406 -4.859375 17.453125 -3.546875 C 16.722656 -2.242188 15.710938 -1.226562 14.421875 -0.5 C 13.140625 0.21875 11.648438 0.578125 9.953125 0.578125 Z M 9.953125 -1.78125 C 11.097656 -1.78125 12.113281 -2.050781 13 -2.59375 C 13.894531 -3.132812 14.597656 -3.878906 15.109375 -4.828125 C 15.617188 -5.773438 15.875 -6.851562 15.875 -8.0625 C 15.875 -9.28125 15.617188 -10.351562 15.109375 -11.28125 C 14.597656 -12.21875 13.894531 -12.957031 13 -13.5 C 12.113281 -14.039062 11.097656 -14.3125 9.953125 -14.3125 C 8.804688 -14.3125 7.78125 -14.039062 6.875 -13.5 C 5.96875 -12.957031 5.257812 -12.21875 4.75 -11.28125 C 4.238281 -10.351562 3.984375 -9.28125 3.984375 -8.0625 C 3.984375 -6.851562 4.238281 -5.773438 4.75 -4.828125 C 5.257812 -3.878906 5.96875 -3.132812 6.875 -2.59375 C 7.78125 -2.050781 8.804688 -1.78125 9.953125 -1.78125 Z M 9.953125 -1.78125 "/></g></g></g><g fill="#ffffff" fill-opacity="1"><g transform="translate(373.312985, 47.784734)"><g><path d="M 2.390625 0 L 2.390625 -16.109375 L 5.03125 -16.109375 L 5.03125 -13.390625 L 5.296875 -13.390625 C 5.679688 -14.328125 6.226562 -15.066406 6.9375 -15.609375 C 7.644531 -16.148438 8.488281 -16.421875 9.46875 -16.421875 C 10.320312 -16.421875 11.066406 -16.265625 11.703125 -15.953125 L 11.703125 -13.390625 C 10.867188 -13.835938 10.007812 -14.0625 9.125 -14.0625 C 7.882812 -14.0625 6.898438 -13.566406 6.171875 -12.578125 C 5.441406 -11.585938 5.078125 -10.285156 5.078125 -8.671875 L 5.078125 0 Z M 2.390625 0 "/></g></g></g><g fill="#ffffff" fill-opacity="1"><g transform="translate(385.874707, 47.784734)"><g><path d="M 7.78125 0.375 C 6.457031 0.375 5.394531 -0.0546875 4.59375 -0.921875 C 3.800781 -1.796875 3.40625 -2.9375 3.40625 -4.34375 L 3.40625 -14.03125 L 0.796875 -14.03125 L 0.796875 -16.109375 L 3.46875 -16.109375 L 3.890625 -21.046875 L 6.125 -21.046875 L 6.09375 -16.109375 L 10.203125 -16.109375 L 10.203125 -14.03125 L 6.09375 -14.03125 L 6.125 -4.4375 C 6.125 -3.644531 6.328125 -3.007812 6.734375 -2.53125 C 7.148438 -2.050781 7.722656 -1.8125 8.453125 -1.8125 C 8.742188 -1.8125 9.078125 -1.835938 9.453125 -1.890625 C 9.828125 -1.953125 10.160156 -2.023438 10.453125 -2.109375 L 10.453125 -0.0625 C 10.097656 0.0820312 9.671875 0.191406 9.171875 0.265625 C 8.671875 0.335938 8.207031 0.375 7.78125 0.375 Z M 7.78125 0.375 "/></g></g></g><g fill="#ffffff" fill-opacity="1"><g transform="translate(397.352437, 47.784734)"><g/></g></g><g fill="#ffffff" fill-opacity="1"><g transform="translate(405.259317, 47.784734)"><g><path d="M 1.078125 0 L 1.078125 -1.625 L 14.453125 -19.796875 L 14.453125 -20.03125 L 1.34375 -20.03125 L 1.34375 -22.484375 L 18.5 -22.484375 L 18.5 -20.890625 L 5.265625 -2.703125 L 5.265625 -2.453125 L 18.8125 -2.453125 L 18.8125 0 Z M 1.078125 0 "/></g></g></g><g fill="#ffffff" fill-opacity="1"><g transform="translate(425.122158, 47.784734)"><g><path d="M 9.953125 0.578125 C 8.253906 0.578125 6.753906 0.21875 5.453125 -0.5 C 4.160156 -1.226562 3.144531 -2.242188 2.40625 -3.546875 C 1.675781 -4.859375 1.3125 -6.363281 1.3125 -8.0625 C 1.3125 -9.789062 1.675781 -11.296875 2.40625 -12.578125 C 3.144531 -13.867188 4.160156 -14.875 5.453125 -15.59375 C 6.753906 -16.3125 8.253906 -16.671875 9.953125 -16.671875 C 11.648438 -16.671875 13.140625 -16.3125 14.421875 -15.59375 C 15.710938 -14.875 16.722656 -13.867188 17.453125 -12.578125 C 18.191406 -11.296875 18.5625 -9.789062 18.5625 -8.0625 C 18.5625 -6.363281 18.191406 -4.859375 17.453125 -3.546875 C 16.722656 -2.242188 15.710938 -1.226562 14.421875 -0.5 C 13.140625 0.21875 11.648438 0.578125 9.953125 0.578125 Z M 9.953125 -1.78125 C 11.097656 -1.78125 12.113281 -2.050781 13 -2.59375 C 13.894531 -3.132812 14.597656 -3.878906 15.109375 -4.828125 C 15.617188 -5.773438 15.875 -6.851562 15.875 -8.0625 C 15.875 -9.28125 15.617188 -10.351562 15.109375 -11.28125 C 14.597656 -12.21875 13.894531 -12.957031 13 -13.5 C 12.113281 -14.039062 11.097656 -14.3125 9.953125 -14.3125 C 8.804688 -14.3125 7.78125 -14.039062 6.875 -13.5 C 5.96875 -12.957031 5.257812 -12.21875 4.75 -11.28125 C 4.238281 -10.351562 3.984375 -9.28125 3.984375 -8.0625 C 3.984375 -6.851562 4.238281 -5.773438 4.75 -4.828125 C 5.257812 -3.878906 5.96875 -3.132812 6.875 -2.59375 C 7.78125 -2.050781 8.804688 -1.78125 9.953125 -1.78125 Z M 9.953125 -1.78125 "/></g></g></g><g fill="#ffffff" fill-opacity="1"><g transform="translate(444.984999, 47.784734)"><g><path d="M 2.390625 0 L 2.390625 -16.109375 L 5.078125 -16.109375 L 5.078125 -13.265625 L 5.296875 -13.265625 C 5.847656 -14.328125 6.597656 -15.160156 7.546875 -15.765625 C 8.492188 -16.367188 9.582031 -16.671875 10.8125 -16.671875 C 12.101562 -16.671875 13.21875 -16.363281 14.15625 -15.75 C 15.09375 -15.132812 15.820312 -14.296875 16.34375 -13.234375 C 16.863281 -12.171875 17.125 -10.957031 17.125 -9.59375 L 17.125 0 L 14.421875 0 L 14.421875 -9.21875 C 14.421875 -10.707031 14.019531 -11.925781 13.21875 -12.875 C 12.414062 -13.832031 11.328125 -14.3125 9.953125 -14.3125 C 9.054688 -14.3125 8.234375 -14.097656 7.484375 -13.671875 C 6.742188 -13.253906 6.15625 -12.675781 5.71875 -11.9375 C 5.289062 -11.207031 5.078125 -10.363281 5.078125 -9.40625 L 5.078125 0 Z M 2.390625 0 "/></g></g></g><g fill="#ffffff" fill-opacity="1"><g transform="translate(464.210215, 47.784734)"><g><path d="M 10.140625 0.578125 C 8.421875 0.578125 6.898438 0.210938 5.578125 -0.515625 C 4.265625 -1.253906 3.226562 -2.273438 2.46875 -3.578125 C 1.71875 -4.890625 1.34375 -6.394531 1.34375 -8.09375 C 1.34375 -9.800781 1.71875 -11.296875 2.46875 -12.578125 C 3.226562 -13.867188 4.265625 -14.875 5.578125 -15.59375 C 6.898438 -16.3125 8.421875 -16.671875 10.140625 -16.671875 C 11.835938 -16.671875 13.320312 -16.304688 14.59375 -15.578125 C 15.875 -14.847656 16.875 -13.835938 17.59375 -12.546875 C 18.320312 -11.265625 18.6875 -9.769531 18.6875 -8.0625 L 18.65625 -7.265625 L 4.078125 -7.265625 C 4.160156 -6.140625 4.46875 -5.140625 5 -4.265625 C 5.53125 -3.398438 6.25 -2.722656 7.15625 -2.234375 C 8.0625 -1.742188 9.085938 -1.5 10.234375 -1.5 C 11.492188 -1.5 12.632812 -1.835938 13.65625 -2.515625 C 14.675781 -3.203125 15.382812 -4.066406 15.78125 -5.109375 L 18.171875 -4.65625 C 17.859375 -3.632812 17.300781 -2.726562 16.5 -1.9375 C 15.707031 -1.15625 14.757812 -0.539062 13.65625 -0.09375 C 12.5625 0.351562 11.390625 0.578125 10.140625 0.578125 Z M 4.078125 -9.0625 L 15.953125 -9.0625 C 15.878906 -10.144531 15.582031 -11.097656 15.0625 -11.921875 C 14.539062 -12.753906 13.847656 -13.410156 12.984375 -13.890625 C 12.128906 -14.367188 11.160156 -14.609375 10.078125 -14.609375 C 8.421875 -14.609375 7.046875 -14.09375 5.953125 -13.0625 C 4.859375 -12.03125 4.234375 -10.695312 4.078125 -9.0625 Z M 4.078125 -9.0625 "/></g></g></g><g clip-path="url(#ad65da43a6)"><g clip-path="url(#5be828e22c)"><g clip-path="url(#184fa3ce2e)"><path fill="#cb9b46" d="M 481.558594 65.339844 L 555.539062 -0.0078125 L 559.558594 4.542969 L 485.578125 69.890625 Z M 481.558594 65.339844 " fill-opacity="1" fill-rule="nonzero"/></g></g></g><g clip-path="url(#a5e1f5105e)"><g clip-path="url(#27f46f6b22)"><g clip-path="url(#2866aa9158)"><path fill="#cb9b46" d="M 483.984375 0.367188 L 558.960938 65.238281 L 554.972656 69.851562 L 479.996094 4.980469 Z M 483.984375 0.367188 " fill-opacity="1" fill-rule="nonzero"/></g></g></g></svg>